<svg xmlns="http://www.w3.org/2000/svg" width="28" height="25" viewBox="0 0 28 25">
  <path fill="#06186A" d="M0.621866211,4.01157622 C3.78291443,-1.14298107 22.9671719,-1.52794092 26.364298,4.01157622 C29.761424,9.55109336 19.92869,25 13.4930821,25 C7.05747415,25 -2.53918201,9.16613351 0.621866211,4.01157622 Z M13.5294118,5 C13.0421017,5 12.6470588,5.39504287 12.6470588,5.88235294 L12.6470588,17.3529412 C12.6470588,17.8402512 13.0421017,18.2352941 13.5294118,18.2352941 C14.0167218,18.2352941 14.4117647,17.8402512 14.4117647,17.3529412 L14.4117647,5.88235294 C14.4117647,5.39504287 14.0167218,5 13.5294118,5 Z M5.93428573,5.22549086 C5.46358035,5.35161598 5.18424285,5.83544271 5.31036798,6.30614809 L8.27917468,17.3858855 C8.4052998,17.8565909 8.88912653,18.1359284 9.35983192,18.0098033 C9.8305373,17.8836781 10.1098748,17.3998514 9.98374966,16.929146 L7.01494297,5.8494086 C6.88881784,5.37870322 6.40499112,5.09936573 5.93428573,5.22549086 Z M21.1245378,5.22549086 C20.6538324,5.09936573 20.1700057,5.37870322 20.0438806,5.8494086 L17.0750739,16.929146 C16.9489487,17.3998514 17.2282862,17.8836781 17.6989916,18.0098033 C18.169697,18.1359284 18.6535237,17.8565909 18.7796489,17.3858855 L21.7484555,6.30614809 C21.8745807,5.83544271 21.5952432,5.35161598 21.1245378,5.22549086 Z"/>
</svg>
