<?xml version="1.0" encoding="UTF-8"?>
<svg width="13px" height="13px" viewBox="0 0 13 13" version="1.1" xmlns="http://www.w3.org/2000/svg" xmlns:xlink="http://www.w3.org/1999/xlink">
    <g id="Page-1" stroke="none" stroke-width="1" fill="none" fill-rule="evenodd" fill-opacity="0.7">
        <path d="M9.29102344,8.17610063 L8.70383076,8.17610063 L8.49571184,7.97541452 C9.22412807,7.12807318 9.66266438,6.02801601 9.66266438,4.83133219 C9.66266438,2.16295026 7.49971412,0 4.83133219,0 C2.16295026,0 0,2.16295026 0,4.83133219 C0,7.49971412 2.16295026,9.66266438 4.83133219,9.66266438 C6.02801601,9.66266438 7.12807318,9.22412807 7.97541452,8.49571184 L8.17610063,8.70383076 L8.17610063,9.29102344 L11.89251,13 L13,11.89251 L9.29102344,8.17610063 L9.29102344,8.17610063 Z M4.5,8 C2.56333333,8 1,6.43666667 1,4.5 C1,2.56333333 2.56333333,1 4.5,1 C6.43666667,1 8,2.56333333 8,4.5 C8,6.43666667 6.43666667,8 4.5,8 L4.5,8 Z" id="Shape-Copy" fill="#000000"></path>
    </g>
</svg>
