<svg xmlns="http://www.w3.org/2000/svg" width="497" height="497" viewBox="0 0 497 497">
  <path d="M248,0 C111,0 0,111 0,248 C0,385 111,496 248,496 C385,496 496,385 496,248 C496,111 385,0 248,0 Z M392,276 C392,282.6 386.6,288 380,288 L288,288 L288,380 C288,386.6 282.6,392 276,392 L220,392 C213.4,392 208,386.6 208,380 L208,288 L116,288 C109.4,288 104,282.6 104,276 L104,220 C104,213.4 109.4,208 116,208 L208,208 L208,116 C208,109.4 213.4,104 220,104 L276,104 C282.6,104 288,109.4 288,116 L288,208 L380,208 C386.6,208 392,213.4 392,220 L392,276 Z" transform="rotate(45 247.487 249.238)"/>
</svg>
